# xmcd CD database file
#
# Track frame offsets:
#	150
#	15509
#	30965
#	45809
#	67581
#	81878
#	94807
#	109307
#	121646
#	140942
#	162023
#	174528
#	197583
#	210657
#	228013
#
# Disc length: 3261 seconds
#
# Revision: 0
# Processed by: cddbd v1.5.2PL0 Copyright (c) Steve Scherf et al.
# Submitted via: CDex 1.51
#
DISCID=ad0cbb0f
DTITLE=Eric Church - Carolina (Limited Edition-Best Buy Exclusive)
DYEAR=2009
DGENRE=Country
TTITLE0=Ain't Killed Me Yet
TTITLE1=Lotta Boot Left To Fill
TTITLE2=Young And Wild
TTITLE3=Where She Told Me To Go
TTITLE4=Longer Gone
TTITLE5=Love Your Love The Most
TTITLE6=Smoke A Little Smoke
TTITLE7=Without You Here
TTITLE8=You Make It Look So Easy
TTITLE9=Carolina
TTITLE10=Hell On The Heart
TTITLE11=Those I've Loved
TTITLE12=My Heart's Got A Memory (BONUS TRACK)
TTITLE13=Faster Than My Angels Can Fly (BONUS TRACK)
TTITLE14=His Kind Of Money - My Kind Of Love (BONUS TRACK)
EXTD=YEAR: 2009
EXTT0=
EXTT1=
EXTT2=
EXTT3=
EXTT4=
EXTT5=
EXTT6=
EXTT7=
EXTT8=
EXTT9=
EXTT10=
EXTT11=
EXTT12=
EXTT13=
EXTT14=
PLAYORDER=
